<?xml version="1.0" encoding="iso-8859-1"?>
<!-- Generator: Adobe Illustrator 19.0.0, SVG Export Plug-In . SVG Version: 6.00 Build 0)  -->
<svg version="1.1" id="Layer_1" xmlns="http://www.w3.org/2000/svg" xmlns:xlink="http://www.w3.org/1999/xlink" x="0px" y="0px"
	 viewBox="0 0 512 512" style="enable-background:new 0 0 512 512;" xml:space="preserve">
<path style="fill:#DB2B42;" d="M256,0C114.608,0,0,114.608,0,256c0,141.376,114.608,256,256,256s256-114.624,256-256
	C512,114.608,397.392,0,256,0z"/>
<g style="opacity:0.2;">
	<polygon points="221.2,167.12 294.224,238.368 117.984,238.368 117.984,304.816 294.224,304.816 221.2,376.048 267.712,423.472 
		423.424,271.584 267.712,119.696 	"/>
</g>
<polygon style="fill:#FFFFFF;" points="205.2,151.12 278.224,222.368 101.984,222.368 101.984,288.816 278.224,288.816 
	205.2,360.048 251.712,407.472 407.424,255.584 251.712,103.696 "/>
<g>
</g>
<g>
</g>
<g>
</g>
<g>
</g>
<g>
</g>
<g>
</g>
<g>
</g>
<g>
</g>
<g>
</g>
<g>
</g>
<g>
</g>
<g>
</g>
<g>
</g>
<g>
</g>
<g>
</g>
</svg>
